# xmcd CD database file
#
# Track frame offsets:
#	183
#	7593
#	25158
#	62385
#	109620
#	126000
#	147573
#	165873
#	180378
#	204623
#	221735
#
# Disc length: 3394 seconds
#
# Revision: 0
# Processed by: cddbd v1.4PL0 Copyright (c) Steve Scherf et al.
# Submitted via: Feurio! 1.64 - http://www.feurio.com
#
DISCID=870d400b
DTITLE=Various Artist - Lass das mal den Tony machen Folge 3
DYEAR=1900
DGENRE=Schlager
TTITLE0=Tony Marshall - Lass das mal den Tony machen Folge 3
TTITLE1=Tony Marshall - So jung wie heut´ kommen wir nie wieder zusammen
TTITLE2=Tony Marshall - Medley: Frühlings und Wanderlieder
TTITLE3=Tina York - Medley: Hits der 70er Jahre
TTITLE4=Klaus and Klaus - An der Nordseeküste
TTITLE5=Ludwig Baumann - Medley: Hermann Löns Lieder
TTITLE6=Nicolai Gedda - Gern hab´ ich die Frau´n geküsst
TTITLE7=Nicolai Gedda and Tony Marshall - Ich bin der Prodekan
TTITLE8=Tony Marshall - Medley: Wir sind aus der Pfalz
TTITLE9=Tony Marshall - Adios Amigos
TTITLE10=Roberto Blanco and Tony Marshall - Medley: Wir bleiben noch etwas hier
EXTD=Pepi
EXTT0=
EXTT1=
EXTT2=
EXTT3=
EXTT4=
EXTT5=
EXTT6=
EXTT7=
EXTT8=
EXTT9=
EXTT10=
PLAYORDER=
